PathFileType	4	(X/Y/Z)	c:/Users/goper/Files/vsCode/490R/osim_files/C11/C11_Slow_01.trc
DataRate	CameraRate	NumFrames	NumMarkers	Units                	OrigDataRate	OrigDataStartFrame	OrigNumFrames
120.00	120.00	8	36	mm	120.0	1086	1737
                Frame#	Time	LPSIS			LASIS			LTH1			LTH2			LTH3			LTH4			LLFE			LMFE			LSH1			LSH2			LSH3			LSH4			LLMAL			LMMAL			LCAL			LMTP5			LTOE			LMTP1			RPSIS			RASIS			RTH1			RTH2			RTH3			RTH4			RLFE			RMFE			RSH1			RSH2			RSH3			RSH4			RLMAL			RMMAL			RCAL			RMTP1			RTOE			RMTP5		
		X1	Y1	Z1	X2	Y2	Z2	X3	Y3	Z3	X4	Y4	Z4	X5	Y5	Z5	X6	Y6	Z6	X7	Y7	Z7	X8	Y8	Z8	X9	Y9	Z9	X10	Y10	Z10	X11	Y11	Z11	X12	Y12	Z12	X13	Y13	Z13	X14	Y14	Z14	X15	Y15	Z15	X16	Y16	Z16	X17	Y17	Z17	X18	Y18	Z18	X19	Y19	Z19	X20	Y20	Z20	X21	Y21	Z21	X22	Y22	Z22	X23	Y23	Z23	X24	Y24	Z24	X25	Y25	Z25	X26	Y26	Z26	X27	Y27	Z27	X28	Y28	Z28	X29	Y29	Z29	X30	Y30	Z30	X31	Y31	Z31	X32	Y32	Z32	X33	Y33	Z33	X34	Y34	Z34	X35	Y35	Z35	X36	Y36	Z36

1086	9.04167	-1570.07910	971.43628	453.48145	-1750.66455	987.94531	505.49158	-1770.33020	602.52643	554.50085	-1790.80493	559.85864	547.74408	-1827.40039	622.05975	559.94086	-1838.82690	577.75598	550.93451	0.00000	0.00000	0.00000	-1837.32666	504.52063	544.93738	-1802.29846	397.12729	560.18896	-1806.52930	352.41650	558.57080	-1864.45886	397.77560	555.63727	-1860.16406	353.01013	554.54608	-1826.60339	95.09441	494.39844	-1853.51062	111.82822	401.16772	-1766.80005	60.82099	440.16058	-1938.91309	44.47590	523.90070	-2011.36328	61.16912	453.78162	-1969.96204	45.67525	409.17484	-1565.97998	978.99207	367.39014	-1725.61829	957.69348	274.53406	-1631.95203	592.35034	250.25357	-1636.14722	548.71228	255.43594	-1696.31726	590.43091	253.53972	-1689.99097	547.88342	256.81494	-1646.75037	464.99503	267.69681	-1636.17212	452.91882	381.75574	-1531.69202	437.55701	258.40921	-1497.85413	406.14224	259.02612	-1569.76941	387.61301	257.85696	-1529.72961	362.51486	258.07669	-1297.08679	220.69160	299.09357	-1326.38220	213.31729	391.46011	-1237.06152	258.87424	352.90332	-1343.38416	77.49961	389.66891	-1352.09973	74.12661	338.60141	-1301.92346	88.31225	278.63736
1087	9.05000	-1579.18542	972.21265	454.23962	-1759.89783	989.07593	505.81693	-1778.16443	603.35632	556.20923	-1797.27441	560.24829	548.00092	-1834.41260	622.22852	560.22217	-1845.61438	578.01178	551.21338	0.00000	0.00000	0.00000	-1842.70483	504.39130	545.09686	-1805.59863	397.43488	559.29279	-1808.96753	352.71188	557.60010	-1867.61707	397.10492	555.81793	-1862.71741	352.49265	554.54095	-1826.64941	95.04293	494.30551	-1853.52576	111.76011	401.12320	-1766.80212	60.72580	440.18408	-1938.88818	44.36436	523.96838	-2011.39392	60.89518	453.81006	-1970.00903	45.60310	409.09845	-1574.95972	979.23273	368.15402	-1734.18835	958.23706	275.11050	-1648.11365	591.05255	250.72234	-1653.27759	547.48944	255.69377	-1712.48499	590.57117	253.25291	-1707.16077	547.95874	256.36526	-1665.99976	464.82809	267.18439	-1656.87878	452.09494	381.85190	-1552.17102	439.23077	258.01172	-1518.29077	408.37973	258.64368	-1590.83167	387.36115	258.34134	-1549.00452	364.21930	257.49884	-1314.22559	229.35915	297.92761	-1342.57275	220.78302	390.63632	-1256.50000	270.75992	351.83322	-1352.78113	83.31942	388.31281	-1360.82910	79.03869	337.59198	-1312.54651	95.83202	278.65216
1088	9.05833	-1588.22815	973.04559	454.92166	-1769.03113	990.24347	506.00101	-1783.14929	602.80890	555.03253	-1803.37048	560.82910	548.43469	-1841.14050	622.44110	560.36298	-1851.92468	578.32764	551.41077	0.00000	0.00000	0.00000	-1847.67261	504.32901	545.19794	-1808.53125	397.90436	558.49200	-1811.16333	353.14249	556.71918	-1870.69727	396.60123	555.83807	-1864.97131	352.07907	554.36920	-1826.71375	95.06557	494.23230	-1853.56445	111.71567	401.12308	-1766.80640	60.70948	440.18524	-1938.88806	44.37028	523.98700	-2011.40564	60.75855	453.81641	-1970.03687	45.52829	409.05237	-1583.67725	979.62665	368.98096	-1742.77185	958.94073	275.59232	-1663.45410	590.32556	251.03722	-1670.09167	546.81055	255.92007	-1728.23926	591.19177	252.66629	-1723.98828	548.45062	255.90695	-1685.42749	464.89642	266.69037	-1677.14233	451.99643	381.79315	-1573.27734	440.94058	257.75961	-1538.66138	410.62674	258.23560	-1610.57043	388.55276	257.65015	-1568.56824	365.91327	257.02185	-1331.64905	237.60399	297.15234	-1359.99573	227.50842	389.86829	-1276.21399	281.77353	350.81024	-1363.34094	88.64552	386.94858	-1371.72827	84.43324	336.07248	-1323.98901	103.26011	278.17453
1089	9.06667	-1596.96570	974.08380	455.65750	-1778.11365	991.57025	506.07394	-1789.56177	603.88983	555.55286	-1809.17847	561.47449	548.82935	-1847.70227	622.77924	560.39618	-1858.08313	578.74017	551.57581	0.00000	0.00000	0.00000	-1852.45850	504.30563	545.25531	-1811.45911	398.33908	557.94220	-1813.23853	353.69800	556.30768	-1873.67456	396.31256	555.85883	-1867.40845	351.87405	554.32538	-1826.74121	95.12617	494.17758	-1853.57300	111.68865	401.13065	-1766.77783	60.73185	440.16895	-1938.94836	44.41663	523.99200	-2011.40247	60.69413	453.78571	-1970.05762	45.47420	408.99954	-1592.12634	980.27356	369.84192	-1750.95300	959.90497	275.96457	-1679.07764	590.17175	251.56480	-1686.76294	546.73517	256.27563	-1743.70667	592.31055	252.03992	-1740.68994	549.45496	255.42967	-1704.73853	465.59238	266.18771	-1697.20825	452.54034	381.63480	-1594.42041	442.62152	257.54910	-1559.01245	412.95074	257.83160	-1630.51025	390.15805	257.09064	-1588.35620	367.77823	256.49417	-1349.58044	244.68198	296.50330	-1378.09265	232.98038	389.07336	-1296.47827	291.03729	350.75867	-1375.07996	93.48612	385.18774	-1382.48718	88.92648	334.75232	-1335.98047	110.62817	277.28821
1090	9.07500	-1605.52405	975.24805	456.46976	-1786.88696	992.87054	506.06903	-1795.94617	605.42780	555.95398	-1814.67505	562.02454	549.21082	-1853.86340	622.97723	560.34033	-1863.83984	578.99066	551.62976	0.00000	0.00000	0.00000	-1856.98389	504.23044	545.25995	-1814.47302	398.87552	557.67981	-1815.74500	354.15030	556.11633	-1876.69482	395.99008	555.80450	-1869.93994	351.66434	554.27405	-1826.74976	95.15611	494.14764	-1853.57263	111.69405	401.14114	-1766.74463	60.73291	440.16901	-1938.90051	44.42486	523.98346	-2011.38110	60.62008	453.77197	-1970.07678	45.46492	408.98431	-1600.29883	981.05811	370.66571	-1758.82373	961.00568	276.44873	-1694.61194	590.38452	252.22871	-1703.22546	547.18604	256.75189	-1758.93555	593.98401	251.43585	-1756.88367	550.98969	254.71890	-1723.98120	466.92130	265.66714	-1716.93335	453.57721	381.17972	-1614.99158	444.51993	257.09036	-1579.44495	415.22546	257.32318	-1650.41028	392.01605	256.54520	-1608.35376	369.78421	255.90565	-1367.31543	250.79454	296.08386	-1396.12817	237.54489	388.47684	-1316.01135	298.44601	351.33707	-1388.83411	98.18911	383.31631	-1395.67542	94.31008	332.76001	-1349.40430	117.77696	275.75308
1091	9.08333	-1614.00122	976.43884	457.13031	-1795.54895	994.21478	506.15289	-1801.58850	606.35193	556.57794	-1819.82373	562.63629	549.64557	-1860.11707	623.14948	560.61212	-1869.27661	579.26270	551.74670	0.00000	0.00000	0.00000	-1861.19006	504.16376	545.25452	-1817.72681	399.12125	557.82526	-1818.60730	354.38657	556.33441	-1879.86096	395.73309	555.83942	-1872.77063	351.48669	554.40375	-1826.74170	95.18130	494.14249	-1853.59619	111.69290	401.13892	-1766.72864	60.72020	440.18649	-1938.88110	44.39510	523.99731	-2011.33582	60.56697	453.77979	-1970.05835	45.44398	408.93491	-1608.46021	982.02814	371.49722	-1766.09912	962.01355	277.02255	-1710.17908	591.36267	253.75804	-1719.51099	548.14948	257.22797	-1774.13403	596.04840	250.75089	-1772.87207	553.05200	254.02446	-1743.08374	468.71951	265.12662	-1736.45483	454.91745	380.70834	-1635.46765	446.83237	256.73566	-1599.69788	417.71939	256.74329	-1670.52979	394.20380	256.08109	-1627.75317	372.64670	254.82060	-1384.78772	256.77017	295.93930	-1414.43433	241.93831	388.09869	-1334.73877	304.20914	352.43497	-1405.38647	102.80816	380.80591	-1412.18848	99.56881	329.98267	-1365.06213	124.31348	274.15363
1092	9.09167	-1622.24365	977.93909	457.77448	-1803.95227	995.49811	506.29263	-1807.09106	607.09027	556.89832	-1824.66663	563.17145	550.04401	-1865.63257	623.24707	560.56653	-1874.38574	579.58997	551.81464	0.00000	0.00000	0.00000	-1865.17419	504.12918	545.24628	-1820.96265	399.27353	558.23505	-1821.43665	354.60916	556.67230	-1883.07666	395.37234	555.87231	-1875.45203	351.12088	554.50305	-1826.82117	95.20112	494.12820	-1853.61169	111.72553	401.12552	-1766.77246	60.68696	440.21561	-1938.89417	44.39784	524.02557	-2011.34424	60.51043	453.77847	-1970.05115	45.40970	408.87433	-1616.43970	983.19696	372.23840	-1771.95728	962.46686	278.15189	-1725.96887	592.27802	254.69286	-1735.74158	549.44751	257.57410	-1789.16675	598.49402	249.97749	-1788.87341	555.41724	253.31725	-1762.04114	471.02747	264.45773	-1756.40344	456.86874	380.09821	-1655.87085	449.67551	256.44043	-1619.50549	420.71991	256.18625	-1690.09534	396.96503	255.23486	-1647.22144	375.62585	253.80646	-1403.01611	262.27435	295.83597	-1433.34863	246.21432	387.81497	-1353.22437	308.86090	353.70850	-1424.39893	107.10935	378.25827	-1430.64758	104.69097	327.22876	-1383.50537	129.97681	272.63623
1093	9.10000	-1630.32861	979.42822	458.40405	-1812.27319	996.78235	506.46304	-1812.01343	607.96130	557.41223	-1829.18237	563.71289	550.29968	-1870.47498	623.53479	560.13074	-1879.09155	580.01227	551.97797	0.00000	0.00000	0.00000	-1868.85266	504.09497	545.23706	-1824.05273	399.28815	558.86725	-1824.50879	354.48804	557.07739	-1886.11536	395.04453	556.01178	-1878.11890	350.80374	554.57355	-1826.96619	94.70202	493.78891	-1853.60645	111.72285	401.10522	-1766.75903	60.67250	440.23312	-1938.88110	44.36272	524.05994	-2011.30066	60.45165	453.75314	-1969.15320	45.60253	406.97345	-1624.04517	984.68445	372.82538	-1779.56982	964.07086	278.44064	-1741.26050	593.72986	255.13156	-1751.85315	551.18475	257.83334	-1804.02722	601.23706	249.09186	-1804.65881	558.25507	252.53540	-1780.52100	473.99927	263.64105	-1775.54749	459.01538	379.57059	-1675.07764	453.13605	256.16440	-1638.86255	424.32986	255.78752	-1708.79980	400.71854	254.04643	-1665.86133	380.16504	253.13307	-1421.10632	267.18787	296.04550	-1452.50574	249.95441	387.78918	-1371.32068	312.05963	354.95367	-1445.03992	110.77604	375.69864	-1451.27783	109.50481	324.66156	-1403.03406	135.25000	270.14264
